<svg width="24" height="24" viewBox="0 0 24 24" fill="none" xmlns="http://www.w3.org/2000/svg">
<path fillRule="evenodd" clipRule="evenodd" d="M15.7158 16.9737H8.49585C8.08185 16.9737 7.74585 16.6377 7.74585 16.2237C7.74585 15.8097 8.08185 15.4737 8.49585 15.4737H15.7158C16.1298 15.4737 16.4658 15.8097 16.4658 16.2237C16.4658 16.6377 16.1298 16.9737 15.7158 16.9737" fill="black"/>
<path fillRule="evenodd" clipRule="evenodd" d="M15.7158 12.7872H8.49585C8.08185 12.7872 7.74585 12.4512 7.74585 12.0372C7.74585 11.6232 8.08185 11.2872 8.49585 11.2872H15.7158C16.1298 11.2872 16.4658 11.6232 16.4658 12.0372C16.4658 12.4512 16.1298 12.7872 15.7158 12.7872" fill="black"/>
<path fillRule="evenodd" clipRule="evenodd" d="M11.2506 8.6104H8.49561C8.08161 8.6104 7.74561 8.2744 7.74561 7.8604C7.74561 7.4464 8.08161 7.1104 8.49561 7.1104H11.2506C11.6646 7.1104 12.0006 7.4464 12.0006 7.8604C12.0006 8.2744 11.6646 8.6104 11.2506 8.6104" fill="black"/>
<mask id="mask0_12_65" style="mask-type:luminance" maskUnits="userSpaceOnUse" x="3" y="2" width="19" height="20">
<path fillRule="evenodd" clipRule="evenodd" d="M3 2.0002H21.1647V21.91H3V2.0002Z" fill="white"/>
</mask>
<g mask="url(#mask0_12_65)">
<path fillRule="evenodd" clipRule="evenodd" d="M15.9088 3.5L8.21976 3.504C5.89176 3.518 4.49976 4.958 4.49976 7.357V16.553C4.49976 18.968 5.90476 20.41 8.25576 20.41L15.9448 20.407C18.2728 20.393 19.6648 18.951 19.6648 16.553V7.357C19.6648 4.942 18.2608 3.5 15.9088 3.5ZM8.25676 21.91C5.11276 21.91 2.99976 19.757 2.99976 16.553V7.357C2.99976 4.124 5.04676 2.023 8.21476 2.004L15.9078 2H15.9088C19.0528 2 21.1648 4.153 21.1648 7.357V16.553C21.1648 19.785 19.1178 21.887 15.9498 21.907L8.25676 21.91Z" fill="black"/>
</g>
</svg>
